<svg width="100" height="68" viewBox="0 0 100 68" fill="none" xmlns="http://www.w3.org/2000/svg">
<path d="M33.4604 16.6057H30.2305V1.04736H33.4604V16.6057Z" fill="black"/>
<path d="M36.0152 1.04736H39.4245L45.6204 11.9086V1.04736H48.6497V16.6057H45.3987L39.0445 5.55442V16.6057H36.0152V1.04736Z" fill="black"/>
<path d="M41.7884 18.0478V20.8027H37.1336V33.6062H33.8615V20.8027H29.1855V18.0478H41.7884Z" fill="black"/>
<path d="M46.2431 33.6062H43.0132V18.0478H46.2431V33.6062Z" fill="black"/>
<path d="M59.1631 18.0478H63.839V33.6062H60.8097V23.0827C60.8097 22.7801 60.8132 22.3579 60.8202 21.816C60.8273 21.2672 60.8308 20.845 60.8308 20.5494L57.8859 33.6062H54.7299L51.8061 20.5494C51.8061 20.845 51.8096 21.2672 51.8167 21.816C51.8237 22.3579 51.8272 22.7801 51.8272 23.0827V33.6062H48.7979V18.0478H53.5266L56.3554 30.2813L59.1631 18.0478Z" fill="black"/>
<path d="M77.9306 20.8027H69.6976V24.1065H77.2551V26.8086H69.6976V30.809H78.3106V33.6062H66.5205V18.0478H77.9306V20.8027Z" fill="black"/>
<path d="M37.3658 48.2845C38.6535 48.2845 39.6739 47.8095 40.4268 46.8596C41.1868 45.9096 41.5668 44.5585 41.5668 42.8064C41.5668 41.0613 41.1868 39.7137 40.4268 38.7637C39.6739 37.8067 38.6535 37.3282 37.3658 37.3282C36.0781 37.3282 35.0507 37.8032 34.2837 38.7532C33.5167 39.7032 33.1332 41.0542 33.1332 42.8064C33.1332 44.5585 33.5167 45.9096 34.2837 46.8596C35.0507 47.8095 36.0781 48.2845 37.3658 48.2845ZM44.8178 42.8064C44.8178 45.6 44.0332 47.7392 42.464 49.2239C41.2888 50.4342 39.5894 51.0394 37.3658 51.0394C35.1422 51.0394 33.4428 50.4342 32.2677 49.2239C30.6914 47.7392 29.9033 45.6 29.9033 42.8064C29.9033 39.9565 30.6914 37.8173 32.2677 36.3888C33.4428 35.1785 35.1422 34.5733 37.3658 34.5733C39.5894 34.5733 41.2888 35.1785 42.464 36.3888C44.0332 37.8173 44.8178 39.9565 44.8178 42.8064Z" fill="black"/>
<path d="M46.8764 35.0694H57.9066V37.8032H50.1063V41.3814H56.9355V44.0836H50.1063V50.6067H46.8764V35.0694Z" fill="black"/>
<path d="M30.4311 52.0488H33.8404L40.0363 62.9101V52.0488H43.0656V67.6071H39.8146L33.4604 56.5559V67.6071H30.4311V52.0488Z" fill="black"/>
<path d="M57.1783 54.8037H48.9452V58.1075H56.5027V60.8096H48.9452V64.81H57.5583V67.6071H45.7681V52.0488H57.1783V54.8037Z" fill="black"/>
<path d="M71.1643 54.8037H62.9313V58.1075H70.4888V60.8096H62.9313V64.81H71.5443V67.6071H59.7542V52.0488H71.1643V54.8037Z" fill="black"/>
<path d="M76.8012 54.7509V64.905H79.7989C81.3329 64.905 82.4025 64.1486 83.0076 62.6356C83.3384 61.8053 83.5037 60.8166 83.5037 59.6696C83.5037 58.0864 83.2539 56.8725 82.7543 56.0281C82.2617 55.1767 81.2766 54.7509 79.7989 54.7509H76.8012ZM80.3477 52.0488C81.3118 52.0629 82.114 52.1755 82.7543 52.3866C83.845 52.7455 84.7281 53.4034 85.4036 54.3604C85.9455 55.1344 86.3149 55.9718 86.5119 56.8725C86.709 57.7732 86.8075 58.6317 86.8075 59.448C86.8075 61.5168 86.3923 63.269 85.562 64.7045C84.4361 66.6396 82.698 67.6071 80.3477 67.6071H73.6452V52.0488H80.3477Z" fill="black"/>
<path d="M0.831543 0.864502H15.5377L24.2173 67.6071H9.51115L0.831543 0.864502Z" fill="#4AB7C6"/>
<circle cx="93.9432" cy="62.382" r="5.22518" fill="#ED766E"/>
</svg>
